<mxfile host="app.diagrams.net" modified="2023-11-24T02:24:14.932Z" agent="Mozilla/5.0 (Macintosh; Intel Mac OS X 10_15_7) AppleWebKit/537.36 (KHTML, like Gecko) Chrome/119.0.0.0 Safari/537.36" version="21.6.6" etag="Sxvg65Hlu712v6PxeDQ9" type="github">
  <diagram name="第 1 页" id="ipoahz4lR7KYBUS4qv3-">
    <mxGraphModel>
      <root>
        <mxCell id="0" />
        <mxCell id="1" parent="0" />
      </root>
    </mxGraphModel>
  </diagram>
</mxfile>
